<mxfile host="app.diagrams.net" modified="2023-05-23T20:00:30.113Z" agent="Mozilla/5.0 (X11; Linux x86_64) AppleWebKit/537.36 (KHTML, like Gecko) Chrome/109.0.0.0 Safari/537.36" version="21.2.8" etag="R4SI070uRvg0h6wS4PI5" type="github">
  <diagram name="Page-1" id="y4vLvt-76Si4RtkFSOu0">
    <mxGraphModel>
      <root>
        <mxCell id="0" />
        <mxCell id="1" parent="0" />
      </root>
    </mxGraphModel>
  </diagram>
</mxfile>
